<svg xmlns="http://www.w3.org/2000/svg" xmlns:xlink="http://www.w3.org/1999/xlink" viewBox="0 0 1200 1031.14"><defs><style>.cls-1{isolation:isolate;}.cls-2{fill:url(#linear-gradient);}.cls-3{fill:url(#linear-gradient-2);}.cls-4{fill:url(#linear-gradient-3);}.cls-5{fill:url(#linear-gradient-4);}.cls-6{fill:url(#linear-gradient-5);}.cls-7{fill:url(#linear-gradient-6);}.cls-8{fill:url(#linear-gradient-7);}.cls-9{fill:url(#linear-gradient-8);}.cls-10{fill:url(#linear-gradient-9);}.cls-11{fill:url(#linear-gradient-10);}.cls-12{fill:url(#linear-gradient-11);}.cls-13{fill:url(#linear-gradient-12);}.cls-14{fill:url(#linear-gradient-13);}.cls-15{fill:url(#linear-gradient-14);}.cls-16{fill:url(#linear-gradient-15);}.cls-17{fill:url(#linear-gradient-16);}.cls-18{fill:url(#linear-gradient-17);}.cls-19{fill:url(#linear-gradient-18);}.cls-20{fill:url(#linear-gradient-19);}.cls-21{fill:url(#linear-gradient-20);}.cls-22{fill:url(#linear-gradient-21);}.cls-23{fill:url(#linear-gradient-22);}.cls-24{fill:url(#linear-gradient-23);}.cls-25{fill:url(#linear-gradient-24);}.cls-26{fill:url(#linear-gradient-25);}.cls-27{fill:url(#linear-gradient-26);}.cls-28{fill:url(#linear-gradient-27);}.cls-29{fill:url(#linear-gradient-28);}.cls-30{fill:url(#linear-gradient-29);}.cls-31{fill:url(#linear-gradient-30);}.cls-32{fill:url(#linear-gradient-31);}.cls-33{fill:url(#linear-gradient-32);}.cls-34{mix-blend-mode:multiply;fill:url(#linear-gradient-33);}.cls-35{fill:url(#linear-gradient-34);}.cls-36{fill:url(#linear-gradient-35);}.cls-37{fill:url(#linear-gradient-36);}.cls-38{fill:url(#linear-gradient-37);}.cls-39{fill:url(#linear-gradient-38);}.cls-40{fill:url(#linear-gradient-39);}.cls-41{mix-blend-mode:overlay;fill:url(#linear-gradient-40);}.cls-42{fill:url(#linear-gradient-41);}.cls-43{fill:url(#linear-gradient-42);}.cls-44{fill:url(#linear-gradient-43);}.cls-45,.cls-46{fill:#263c75;}.cls-45,.cls-68{fill-rule:evenodd;}.cls-47,.cls-48,.cls-49,.cls-50,.cls-52,.cls-53,.cls-56{fill:none;}.cls-47,.cls-48,.cls-49,.cls-50,.cls-52,.cls-53{stroke-linejoin:round;stroke-width:0.25px;}.cls-47{stroke:url(#linear-gradient-44);}.cls-48,.cls-49,.cls-50,.cls-52,.cls-53{stroke-linecap:round;}.cls-48{stroke:url(#linear-gradient-45);}.cls-49{stroke:url(#linear-gradient-46);}.cls-50{stroke:url(#linear-gradient-47);}.cls-51{fill:url(#linear-gradient-48);}.cls-52{stroke:url(#linear-gradient-49);}.cls-53{stroke:url(#linear-gradient-50);}.cls-54{fill:url(#linear-gradient-51);}.cls-55{fill:url(#linear-gradient-52);}.cls-56{stroke:#fff;stroke-miterlimit:10;stroke-width:7px;}.cls-57{fill:url(#linear-gradient-53);}.cls-58{fill:url(#linear-gradient-54);}.cls-59{fill:url(#linear-gradient-55);}.cls-60{fill:url(#linear-gradient-56);}.cls-61{fill:url(#linear-gradient-57);}.cls-62{fill:url(#linear-gradient-58);}.cls-63{fill:url(#linear-gradient-59);}.cls-64{fill:url(#Degradado_sin_nombre_68);}.cls-65{fill:url(#linear-gradient-60);}.cls-66{fill:url(#linear-gradient-61);}.cls-67{fill:url(#linear-gradient-62);}.cls-68{fill:url(#linear-gradient-63);}.cls-69{fill:url(#linear-gradient-64);}.cls-70{fill:url(#linear-gradient-65);}.cls-71{fill:url(#linear-gradient-66);}.cls-72{fill:url(#linear-gradient-67);}.cls-73{fill:url(#linear-gradient-68);}.cls-74{fill:url(#linear-gradient-69);}.cls-75{fill:url(#linear-gradient-70);}.cls-76{fill:url(#linear-gradient-71);}.cls-77{fill:url(#linear-gradient-72);}.cls-78{fill:url(#linear-gradient-73);}</style><linearGradient id="linear-gradient" x1="1248.32" y1="1409.3" x2="420.46" y2="165.07" gradientUnits="userSpaceOnUse"><stop offset="0" stop-color="#712b90"/><stop offset="1" stop-color="#233e99"/></linearGradient><linearGradient id="linear-gradient-2" x1="248.39" y1="841.17" x2="1232.78" y2="1024.95" gradientUnits="userSpaceOnUse"><stop offset="0" stop-color="#2e3192"/><stop offset="1" stop-color="#422461"/></linearGradient><linearGradient id="linear-gradient-3" x1="2841.34" y1="1223.53" x2="2708.12" y2="1310.12" gradientTransform="matrix(-0.83, 0.55, -0.55, -0.83, 3798.22, -119.02)" gradientUnits="userSpaceOnUse"><stop offset="0" stop-color="#a1f2ff"/><stop offset="1" stop-color="#646dd9"/></linearGradient><linearGradient id="linear-gradient-4" x1="-6128.16" y1="-493.97" x2="-6197.7" y2="-350.48" gradientTransform="matrix(-0.99, -0.14, -0.14, 0.99, -5110.91, 206.17)" gradientUnits="userSpaceOnUse"><stop offset="0" stop-color="#e6e7e8"/><stop offset="1" stop-color="#92278f"/></linearGradient><linearGradient id="linear-gradient-5" x1="-6172.17" y1="-411.47" x2="-6132.49" y2="-352.45" xlink:href="#linear-gradient-4"/><linearGradient id="linear-gradient-6" x1="1048.13" y1="660.71" x2="1073.57" y2="660.71" gradientTransform="matrix(1, 0, 0, 1, 0, 0)" xlink:href="#linear-gradient-4"/><linearGradient id="linear-gradient-7" x1="1019.58" y1="713.17" x2="1089.51" y2="713.17" gradientTransform="matrix(1, 0, 0, 1, 0, 0)" xlink:href="#linear-gradient-4"/><linearGradient id="linear-gradient-8" x1="1023.37" y1="673.9" x2="1096.93" y2="673.9" gradientTransform="matrix(1, 0, 0, 1, 0, 0)" xlink:href="#linear-gradient-4"/><linearGradient id="linear-gradient-9" x1="1038.83" y1="636.84" x2="1091.27" y2="636.84" gradientTransform="matrix(1, 0, 0, 1, 0, 0)" xlink:href="#linear-gradient-4"/><linearGradient id="linear-gradient-10" x1="1059.79" y1="600.11" x2="1079.63" y2="600.11" gradientTransform="matrix(1, 0, 0, 1, 0, 0)" xlink:href="#linear-gradient-4"/><linearGradient id="linear-gradient-11" x1="170.87" y1="-2109.63" x2="87.37" y2="-1937.33" gradientTransform="matrix(0.79, 0.61, -0.61, 0.79, -222.59, 2271.59)" xlink:href="#linear-gradient-3"/><linearGradient id="linear-gradient-12" x1="118.02" y1="-2010.56" x2="165.67" y2="-1939.69" gradientTransform="matrix(0.79, 0.61, -0.61, 0.79, -222.59, 2271.59)" xlink:href="#linear-gradient-3"/><linearGradient id="linear-gradient-13" x1="1038.49" y1="749.98" x2="1163.86" y2="749.98" gradientTransform="matrix(1, 0, 0, 1, 0, 0)" xlink:href="#linear-gradient-3"/><linearGradient id="linear-gradient-14" x1="1034.29" y1="792.75" x2="1101.84" y2="792.75" gradientTransform="matrix(1, 0, 0, 1, 0, 0)" xlink:href="#linear-gradient-3"/><linearGradient id="linear-gradient-15" x1="1062" y1="754.7" x2="1133.04" y2="754.7" gradientTransform="matrix(1, 0, 0, 1, 0, 0)" xlink:href="#linear-gradient-3"/><linearGradient id="linear-gradient-16" x1="1097.84" y1="721.48" x2="1148.62" y2="721.48" gradientTransform="matrix(1, 0, 0, 1, 0, 0)" xlink:href="#linear-gradient-3"/><linearGradient id="linear-gradient-17" x1="1137.97" y1="689.83" x2="1157.49" y2="689.83" gradientTransform="matrix(1, 0, 0, 1, 0, 0)" xlink:href="#linear-gradient-3"/><linearGradient id="linear-gradient-18" x1="-329.35" y1="3024.31" x2="-422.28" y2="3216.06" gradientTransform="matrix(0.58, -0.82, 0.82, 0.58, -2116.16, -1399.69)" xlink:href="#linear-gradient-3"/><linearGradient id="linear-gradient-19" x1="-388.17" y1="3134.56" x2="-335.13" y2="3213.43" gradientTransform="matrix(0.58, -0.82, 0.82, 0.58, -2116.16, -1399.69)" xlink:href="#linear-gradient-3"/><linearGradient id="linear-gradient-20" x1="122.54" y1="727" x2="307.77" y2="727" gradientTransform="matrix(1, 0, 0, 1, 0, 0)" xlink:href="#linear-gradient-3"/><linearGradient id="linear-gradient-21" x1="236.51" y1="761.75" x2="292.11" y2="761.75" gradientTransform="matrix(1, 0, 0, 1, 0, 0)" xlink:href="#linear-gradient-3"/><linearGradient id="linear-gradient-22" x1="191.36" y1="730.84" x2="249.8" y2="730.84" gradientTransform="matrix(1, 0, 0, 1, 0, 0)" xlink:href="#linear-gradient-3"/><linearGradient id="linear-gradient-23" x1="161.42" y1="703.86" x2="203.4" y2="703.86" gradientTransform="matrix(1, 0, 0, 1, 0, 0)" xlink:href="#linear-gradient-3"/><linearGradient id="linear-gradient-24" x1="137.74" y1="678.14" x2="154.33" y2="678.14" gradientTransform="matrix(1, 0, 0, 1, 0, 0)" xlink:href="#linear-gradient-3"/><linearGradient id="linear-gradient-25" x1="580.18" y1="1594.62" x2="459.59" y2="1843.44" gradientTransform="translate(-913.29 -685.38) rotate(-26.64)" xlink:href="#linear-gradient-4"/><linearGradient id="linear-gradient-26" x1="503.85" y1="1737.69" x2="572.68" y2="1840.04" gradientTransform="translate(-913.29 -685.38) rotate(-26.64)" xlink:href="#linear-gradient-4"/><linearGradient id="linear-gradient-27" x1="244.27" y1="639.88" x2="377.86" y2="639.88" gradientTransform="matrix(1, 0, 0, 1, 0, 0)" xlink:href="#linear-gradient-4"/><linearGradient id="linear-gradient-28" x1="291.19" y1="712.33" x2="401" y2="712.33" gradientTransform="matrix(1, 0, 0, 1, 0, 0)" xlink:href="#linear-gradient-4"/><linearGradient id="linear-gradient-29" x1="257.17" y1="650.35" x2="372.69" y2="650.35" gradientTransform="matrix(1, 0, 0, 1, 0, 0)" xlink:href="#linear-gradient-4"/><linearGradient id="linear-gradient-30" x1="246.51" y1="595.32" x2="328.94" y2="595.32" gradientTransform="matrix(1, 0, 0, 1, 0, 0)" xlink:href="#linear-gradient-4"/><linearGradient id="linear-gradient-31" x1="246.11" y1="542.41" x2="277.5" y2="542.41" gradientTransform="matrix(1, 0, 0, 1, 0, 0)" xlink:href="#linear-gradient-4"/><linearGradient id="linear-gradient-32" x1="583.88" y1="796.11" x2="807.23" y2="796.11" gradientUnits="userSpaceOnUse"><stop offset="0" stop-color="#f0f6ff"/><stop offset="1" stop-color="#e8f1ff"/></linearGradient><linearGradient id="linear-gradient-33" x1="612.25" y1="771.32" x2="769.12" y2="771.32" gradientUnits="userSpaceOnUse"><stop offset="0" stop-color="#f0f6ff"/><stop offset="0.44" stop-color="#e6eefc"/><stop offset="1" stop-color="#d2e0f5"/></linearGradient><linearGradient id="linear-gradient-34" x1="396.15" y1="573.81" x2="994.96" y2="573.81" gradientUnits="userSpaceOnUse"><stop offset="0" stop-color="#f0f6ff"/><stop offset="0.51" stop-color="#e6effc"/><stop offset="1" stop-color="#d7e4f7"/></linearGradient><linearGradient id="linear-gradient-35" x1="396.15" y1="569.13" x2="994.96" y2="569.13" gradientTransform="matrix(1, 0, 0, 1, 0, 0)" xlink:href="#linear-gradient-3"/><linearGradient id="linear-gradient-36" x1="396.15" y1="569.13" x2="769.05" y2="569.13" gradientTransform="matrix(1, 0, 0, 1, 0, 0)" xlink:href="#linear-gradient-3"/><linearGradient id="linear-gradient-37" x1="604.83" y1="580.17" x2="786.28" y2="580.17" xlink:href="#linear-gradient-34"/><linearGradient id="linear-gradient-38" x1="941.14" y1="599.73" x2="1017.87" y2="847.14" gradientUnits="userSpaceOnUse"><stop offset="0" stop-color="#596a87"/><stop offset="0.39" stop-color="#4f6283"/><stop offset="1" stop-color="#36507a"/></linearGradient><linearGradient id="linear-gradient-39" x1="944.29" y1="643.52" x2="1030.94" y2="849.93" gradientTransform="matrix(1, 0, 0, 1, 0, 0)" xlink:href="#linear-gradient-3"/><linearGradient id="linear-gradient-40" x1="998.67" y1="739.34" x2="942.42" y2="641.36" gradientUnits="userSpaceOnUse"><stop offset="0" stop-color="#fff" stop-opacity="0.1"/><stop offset="0.21" stop-color="#fcfdff" stop-opacity="0.14"/><stop offset="0.58" stop-color="#f4f8ff" stop-opacity="0.25"/><stop offset="1" stop-color="#e8f1ff" stop-opacity="0.4"/></linearGradient><linearGradient id="linear-gradient-41" x1="943.55" y1="751.34" x2="1028.23" y2="751.34" xlink:href="#linear-gradient-34"/><linearGradient id="linear-gradient-42" x1="970.15" y1="769.41" x2="1001.62" y2="769.41" xlink:href="#linear-gradient-34"/><linearGradient id="linear-gradient-43" x1="969.58" y1="710.49" x2="1000.07" y2="736.53" xlink:href="#linear-gradient-34"/><linearGradient id="linear-gradient-44" x1="981.45" y1="846.31" x2="989.87" y2="846.31" xlink:href="#linear-gradient-34"/><linearGradient id="linear-gradient-45" x1="940.1" y1="850.39" x2="948.51" y2="850.39" xlink:href="#linear-gradient-34"/><linearGradient id="linear-gradient-46" x1="940.1" y1="846.31" x2="948.51" y2="846.31" xlink:href="#linear-gradient-34"/><linearGradient id="linear-gradient-47" x1="940.1" y1="842.22" x2="948.51" y2="842.22" xlink:href="#linear-gradient-34"/><linearGradient id="linear-gradient-48" x1="926.76" y1="634.14" x2="1045.01" y2="634.14" gradientTransform="matrix(1, 0, 0, 1, 0, 0)" xlink:href="#linear-gradient-3"/><linearGradient id="linear-gradient-49" x1="-6468.07" y1="847.33" x2="-6458.45" y2="847.33" gradientTransform="matrix(-1, 0, 0, 1, -5438.06, 0)" xlink:href="#linear-gradient-34"/><linearGradient id="linear-gradient-50" x1="310.94" y1="3649.18" x2="307.63" y2="3649.18" gradientTransform="translate(-1776.05 -1517.4) rotate(-45)" xlink:href="#linear-gradient-34"/><linearGradient id="linear-gradient-51" x1="205.26" y1="769.12" x2="528.98" y2="769.12" xlink:href="#linear-gradient-34"/><linearGradient id="linear-gradient-52" x1="545.42" y1="130.98" x2="869.15" y2="130.98" xlink:href="#linear-gradient-34"/><linearGradient id="linear-gradient-53" x1="396.15" y1="454.36" x2="396.15" y2="541.5" gradientUnits="userSpaceOnUse"><stop offset="0" stop-color="#3d5ba9"/><stop offset="1" stop-color="#93d8ed"/></linearGradient><linearGradient id="linear-gradient-54" x1="396.16" y1="454.36" x2="396.16" y2="541.5" xlink:href="#linear-gradient-53"/><linearGradient id="linear-gradient-55" x1="396.16" y1="454.36" x2="396.16" y2="541.5" xlink:href="#linear-gradient-53"/><linearGradient id="linear-gradient-56" x1="396.16" y1="454.36" x2="396.16" y2="541.5" xlink:href="#linear-gradient-53"/><linearGradient id="linear-gradient-57" x1="1045.01" y1="316.5" x2="1200" y2="316.5" xlink:href="#linear-gradient-34"/><linearGradient id="linear-gradient-58" x1="929.1" y1="256.16" x2="1011.2" y2="256.16" gradientTransform="matrix(1, 0, 0, 1, 0, 0)" xlink:href="#linear-gradient-4"/><linearGradient id="linear-gradient-59" x1="350.05" y1="186.98" x2="423.04" y2="186.98" gradientTransform="matrix(1, 0, 0, 1, 0, 0)" xlink:href="#linear-gradient-3"/><linearGradient id="Degradado_sin_nombre_68" x1="1108.1" y1="135.43" x2="1006.75" y2="57.36" gradientUnits="userSpaceOnUse"><stop offset="0" stop-color="#7cc6ee"/><stop offset="0.18" stop-color="#7ac1ea"/><stop offset="0.41" stop-color="#73b1e0"/><stop offset="0.66" stop-color="#6898cf"/><stop offset="0.92" stop-color="#5974b8"/><stop offset="1" stop-color="#5469b0"/></linearGradient><linearGradient id="linear-gradient-60" x1="2967.17" y1="1140.96" x2="2833.96" y2="1227.55" gradientTransform="translate(3990.91 465) rotate(150.67)" xlink:href="#linear-gradient-4"/><linearGradient id="linear-gradient-61" x1="-1080.83" y1="539.05" x2="-952.65" y2="539.05" gradientTransform="matrix(-0.94, -0.33, -0.33, 0.94, -718.34, 2.09)" xlink:href="#linear-gradient"/><linearGradient id="linear-gradient-62" x1="664.95" y1="522.47" x2="726.16" y2="522.47" xlink:href="#linear-gradient-34"/><linearGradient id="linear-gradient-63" x1="544.47" y1="257.52" x2="597.12" y2="257.52" xlink:href="#linear-gradient-34"/><linearGradient id="linear-gradient-64" x1="574.22" y1="253.86" x2="579.01" y2="253.86" xlink:href="#linear-gradient-34"/><linearGradient id="linear-gradient-65" x1="613.73" y1="257.61" x2="647.52" y2="257.61" xlink:href="#linear-gradient-34"/><linearGradient id="linear-gradient-66" x1="650.19" y1="269.11" x2="682.06" y2="269.11" xlink:href="#linear-gradient-34"/><linearGradient id="linear-gradient-67" x1="686.91" y1="257.61" x2="715.72" y2="257.61" xlink:href="#linear-gradient-34"/><linearGradient id="linear-gradient-68" x1="717.19" y1="264.06" x2="747.24" y2="264.06" xlink:href="#linear-gradient-34"/><linearGradient id="linear-gradient-69" x1="753.01" y1="256.99" x2="762.54" y2="256.99" xlink:href="#linear-gradient-34"/><linearGradient id="linear-gradient-70" x1="770.52" y1="256.99" x2="780.05" y2="256.99" xlink:href="#linear-gradient-34"/><linearGradient id="linear-gradient-71" x1="785.57" y1="264.06" x2="818.14" y2="264.06" xlink:href="#linear-gradient-34"/><linearGradient id="linear-gradient-72" x1="820.31" y1="264.04" x2="868.98" y2="264.04" xlink:href="#linear-gradient-34"/><linearGradient id="linear-gradient-73" x1="-191.15" y1="596.96" x2="-216.46" y2="640.81" gradientTransform="matrix(-1, 0, 0, 1, 491.75, 0)" xlink:href="#linear-gradient-34"/></defs><title>Asset 2</title><g class="cls-1"><g id="Layer_2" data-name="Layer 2"><g id="DESIGNED_BY_FREEPIK" data-name="DESIGNED BY FREEPIK"><path class="cls-2" d="M1200,1031.14V0H846.85C832,60.08,825.93,105.71,722.77,119.61c-140.36,18.92-388.31,14.63-458.48,144.07s-14.51,172.33,0,251.89S201.39,684.66,124,737.89c-68.41,47-140.47,195.16,3.53,293.25Z"/><path class="cls-3" d="M65.83,806.29C31.64,872,28.13,963.46,127.49,1031.14H1200V806.29Z"/><path class="cls-4" d="M723.8,417.67a12.75,12.75,0,0,1-15.51-17.14l18.52-44a12.74,12.74,0,0,1,11.75-7.8l39.27,0,15.22-36.16a12.76,12.76,0,0,1,11.75-7.82l47.72,0a12.76,12.76,0,0,1,0,25.51l-39.26,0L798.06,366.4a12.75,12.75,0,0,1-11.75,7.81l-39.27,0L731.8,410.43A12.73,12.73,0,0,1,723.8,417.67Z"/><path class="cls-5" d="M1015.9,675.76c-6.73,47.59,32.87,70.42,32.87,70.42s44.37-10.95,51.1-58.55-26.74-113.82-26.74-113.82S1022.63,628.16,1015.9,675.76Z"/><path class="cls-6" d="M1015.9,675.76c6.73-47.6,57.23-102,57.23-102l-24.36,172.37S1009.17,723.35,1015.9,675.76Z"/><path class="cls-7" d="M1049,744.52a1,1,0,0,0,1.16-.87l23.4-165.6a1,1,0,0,0-2-.29l-23.41,165.61A1,1,0,0,0,1049,744.52Z"/><path class="cls-8" d="M1051.5,726.83l37.39-15.78a1,1,0,1,0-.8-1.87l-36.25,15.3-30.6-24.75a1,1,0,0,0-1.28,1.58Z"/><path class="cls-9" d="M1057,688.24l39.36-16.61a1,1,0,0,0,.54-1.34,1,1,0,0,0-1.32-.53l-38.24,16.13L1025,659.79a1,1,0,0,0-1.43.15,1,1,0,0,0,.15,1.43Z"/><path class="cls-10" d="M1062.75,647.27l27.89-11.77a1,1,0,1,0-.79-1.87l-26.77,11.29-22.6-18.28a1,1,0,0,0-1.27,1.59Z"/><path class="cls-11" d="M1068.79,604.5l10.22-4.31a1,1,0,0,0-.79-1.87l-9.09,3.83-7.68-6.2a1,1,0,1,0-1.28,1.57Z"/><path class="cls-12" d="M1125.86,801.26c-35.33,45.64-88.13,30.68-88.13,30.68s-27.72-47.36,7.61-93,120.34-72.3,120.34-72.3S1161.19,755.62,1125.86,801.26Z"/><path class="cls-13" d="M1125.86,801.26c35.33-45.64,39.82-134.62,39.82-134.62l-128,165.3S1090.53,846.9,1125.86,801.26Z"/><path class="cls-14" d="M1039,830.35a1.23,1.23,0,0,1-.21-1.72l122.92-158.81a1.24,1.24,0,0,1,1.72-.22,1.22,1.22,0,0,1,.22,1.71L1040.68,830.13A1.23,1.23,0,0,1,1039,830.35Z"/><path class="cls-15" d="M1052.09,813.38,1034.37,768a1.22,1.22,0,0,1,2.28-.89l17.19,44,46.92,5.61a1.22,1.22,0,1,1-.29,2.42Z"/><path class="cls-16" d="M1080.74,776.38l-18.65-47.79a1.21,1.21,0,0,1,.69-1.58,1.23,1.23,0,0,1,1.58.69l18.13,46.42L1132,780a1.22,1.22,0,1,1-.28,2.42Z"/><path class="cls-17" d="M1111.15,737.08l-13.23-33.86a1.22,1.22,0,0,1,2.28-.89l12.69,32.5,34.66,4.14a1.22,1.22,0,0,1-.29,2.43Z"/><path class="cls-18" d="M1142.9,696.07l-4.84-12.4a1.22,1.22,0,1,1,2.27-.89l4.31,11,11.77,1.41a1.22,1.22,0,1,1-.29,2.43Z"/><path class="cls-19" d="M271,697.08c52.46,37.07,38.36,96.5,38.36,96.5s-51.31,33.11-103.76-4-86.2-130.32-86.2-130.32S218.53,660,271,697.08Z"/><path class="cls-20" d="M271,697.08C218.53,660,119.38,659.3,119.38,659.3l190,134.28S323.44,734.15,271,697.08Z"/><path class="cls-21" d="M307.52,792.29a1.37,1.37,0,0,1-1.9.32l-182.51-129a1.36,1.36,0,0,1,1.58-2.22l182.5,129A1.37,1.37,0,0,1,307.52,792.29Z"/><path class="cls-22" d="M288,778.51l-49.6,21.89a1.36,1.36,0,1,1-1.1-2.48l48.11-21.24,4-52.44a1.36,1.36,0,0,1,1.46-1.25,1.35,1.35,0,0,1,1.25,1.45Z"/><path class="cls-23" d="M245.49,748.44,193.27,771.5a1.36,1.36,0,1,1-1.1-2.49l50.73-22.39,4.19-55.3a1.36,1.36,0,0,1,1.46-1.25,1.34,1.34,0,0,1,1.25,1.45Z"/><path class="cls-24" d="M200.34,716.53l-37,16.35a1.34,1.34,0,0,1-1.79-.7,1.36,1.36,0,0,1,.69-1.8l35.52-15.67L200.68,676a1.37,1.37,0,0,1,1.47-1.25,1.34,1.34,0,0,1,1.24,1.45Z"/><path class="cls-25" d="M153.21,683.22l-13.56,6a1.36,1.36,0,0,1-1.1-2.49l12.06-5.33,1-13.14a1.36,1.36,0,1,1,2.72.19Z"/><path class="cls-26" d="M393.27,639.75c37.38,74.51-15.09,133.92-15.09,133.92s-79,6.53-116.36-68-19-201.87-19-201.87S355.89,565.24,393.27,639.75Z"/><path class="cls-27" d="M393.27,639.75c-37.38-74.51-150.46-135.92-150.46-135.92L378.18,773.67S430.65,714.26,393.27,639.75Z"/><path class="cls-28" d="M376.89,771.08a1.79,1.79,0,0,1-2.38-.79L244.46,511a1.76,1.76,0,1,1,3.15-1.58L377.67,768.7A1.78,1.78,0,0,1,376.89,771.08Z"/><path class="cls-29" d="M363,743.38l-70.17-5.26a1.76,1.76,0,1,1,.27-3.51l68.06,5.09,36.6-57.6a1.76,1.76,0,0,1,2.43-.54,1.73,1.73,0,0,1,.54,2.42Z"/><path class="cls-30" d="M332.68,683l-73.87-5.54a1.76,1.76,0,1,1,.26-3.51l71.76,5.37,38.61-60.74a1.76,1.76,0,1,1,3,1.89Z"/><path class="cls-31" d="M300.5,618.83l-52.36-3.91a1.75,1.75,0,0,1-1.62-1.89,1.77,1.77,0,0,1,1.89-1.64l50.25,3.77,27-42.54a1.78,1.78,0,0,1,2.44-.54,1.75,1.75,0,0,1,.53,2.43Z"/><path class="cls-32" d="M266.92,551.88l-19.18-1.44a1.76,1.76,0,1,1,.26-3.51l17.06,1.27,9.19-14.44a1.76,1.76,0,1,1,3,1.89Z"/><path class="cls-33" d="M782.43,807.75c-10.59-15.73-13.31-22.38-13.31-31.68V740.31H669.78v0H622v35.76c0,9.3-2.72,15.95-13.31,31.68s-24.8,31.75-24.8,33.87V851.9H807.23V841.62C807.23,839.5,793,823.47,782.43,807.75Z"/><path class="cls-34" d="M669.78,740.31v0H622v35.76c0,8.15-2.09,14.28-9.74,26.26l156.8-32.66.07-.1V740.31Z"/><rect class="cls-35" x="396.15" y="390.69" width="598.81" height="366.24" rx="21.91"/><rect class="cls-36" x="396.15" y="429.41" width="598.81" height="279.44"/><polygon class="cls-37" points="539.2 708.85 396.15 708.85 396.15 429.41 769.05 429.41 539.2 708.85"/><rect class="cls-38" x="604.83" y="569.13" width="181.46" height="22.08" rx="3.34"/><rect class="cls-39" x="922.98" y="618.88" width="125.82" height="250.26" rx="10.89"/><rect class="cls-40" x="926.76" y="629.92" width="118.25" height="225.39" rx="6.82"/><path class="cls-41" d="M1045,655.47V636.73a6.81,6.81,0,0,0-6.81-6.81H933.58a6.81,6.81,0,0,0-6.82,6.81V799.24Z"/><rect class="cls-42" x="943.55" y="746.19" width="84.68" height="10.3" rx="1.69"/><rect class="cls-43" x="970.15" y="764.26" width="31.47" height="10.3" rx="1.68"/><path class="cls-44" d="M985.89,710.13A14.27,14.27,0,0,0,976,734.74v0a14.29,14.29,0,1,0,9.86-24.63Z"/><path class="cls-45" d="M993.39,717.81a10.17,10.17,0,0,1,1.71,11.68c-3.94,6.83-17.09,4.84-17.45,3.27-.17-.75,2.34-3.91,4.59-4.5,3.45-.9,5.06,2.24,7.1,1.23,2.55-1.26,4.2-5.52,3-7.78-2.56-4.64-16.91-.22-17.14-1.25S987.21,711.78,993.39,717.81ZM983.55,732a.73.73,0,0,0-.4-.87.63.63,0,0,0-.59,0,.64.64,0,0,0-.18.82A.78.78,0,0,0,983.55,732Z"/><path class="cls-46" d="M987.73,724.23a1.06,1.06,0,0,1-.59-1.29,1.14,1.14,0,0,1,1.72,0,.87.87,0,0,1-1.13,1.25Z"/><polygon class="cls-47" points="989.74 850.39 981.58 850.39 981.58 844.72 985.66 842.23 989.74 844.72 989.74 850.39"/><line class="cls-48" x1="940.22" y1="850.39" x2="948.39" y2="850.39"/><line class="cls-49" x1="940.22" y1="846.31" x2="948.39" y2="846.31"/><line class="cls-50" x1="940.22" y1="842.22" x2="948.39" y2="842.22"/><path class="cls-51" d="M1038.2,629.92H933.58a6.81,6.81,0,0,0-6.82,6.81v1.63H1045v-1.63A6.81,6.81,0,0,0,1038.2,629.92Z"/><path class="cls-52" d="M1020.52,848a2.47,2.47,0,0,0,2.47,2.47h4.43a2.47,2.47,0,0,0,2.47-2.47v-1.24a2.47,2.47,0,0,0-2.47-2.47h-6.6"/><polyline class="cls-53" points="1022.99 846.41 1020.82 844.24 1022.99 842.08"/><path class="cls-54" d="M478.81,792.26c-1.44,0-2.85.09-4.26.21,0-.8.06-1.59.06-2.4a94.25,94.25,0,0,0-188.21-7.42,62.62,62.62,0,0,0-81.14,59.78H529A50.17,50.17,0,0,0,478.81,792.26Z"/><path class="cls-55" d="M819,154.12c-1.43,0-2.85.1-4.26.22,0-.8.06-1.6.06-2.4a94.25,94.25,0,0,0-188.21-7.43,62.62,62.62,0,0,0-81.14,59.78H869.15A50.18,50.18,0,0,0,819,154.12Z"/><path class="cls-56" d="M964.32,504.84a21.57,21.57,0,1,0,21.56-21.56A21.56,21.56,0,0,0,964.32,504.84Z"/><path class="cls-56" d="M933.11,508.47a1.94,1.94,0,0,1,0-.24q-.12-1.68-.12-3.39a52.92,52.92,0,1,1,105.83,0q0,1.71-.12,3.39c0,.08,0,.16,0,.24a54.72,54.72,0,0,1-.84,6.47c-6.38,35.34-42.6,78.08-51.95,78.08s-45.56-42.74-51.94-78.08A50.84,50.84,0,0,1,933.11,508.47Z"/><path class="cls-57" d="M454.78,473l-.1-.13a82.7,82.7,0,0,0-117-.06,1.29,1.29,0,0,0-.39.93,1.32,1.32,0,0,0,.37.9l8.55,8.56a1.36,1.36,0,0,0,.93.37,1.32,1.32,0,0,0,.9-.37,67.9,67.9,0,0,1,96.17,0,1.33,1.33,0,0,0,1.84,0l8.54-8.56a1.24,1.24,0,0,0,.37-.9,1.3,1.3,0,0,0-.21-.74Z"/><path class="cls-58" d="M396.16,471.21a59.67,59.67,0,0,0-42.45,17.6,1.29,1.29,0,0,0,0,1.83l8.52,8.53a1.28,1.28,0,0,0,.92.37,1.18,1.18,0,0,0,.88-.37,45.39,45.39,0,0,1,64.24,0,1.3,1.3,0,0,0,1.82,0l8.53-8.53a1.3,1.3,0,0,0,.38-.91,1.34,1.34,0,0,0-.38-.92,59.68,59.68,0,0,0-42.46-17.6Z"/><path class="cls-59" d="M396.16,493.82a37.2,37.2,0,0,0-26.47,11,1.3,1.3,0,0,0-.39.92,1.26,1.26,0,0,0,.39.91l8.52,8.52a1.26,1.26,0,0,0,.9.38,1.28,1.28,0,0,0,.92-.38,22.8,22.8,0,0,1,32.27,0,1.26,1.26,0,0,0,.9.38,1.3,1.3,0,0,0,.92-.38l8.52-8.52a1.3,1.3,0,0,0,0-1.83,37.19,37.19,0,0,0-26.48-11Z"/><path class="cls-60" d="M396.16,517.76a13.06,13.06,0,0,0-9.24,3.83,1.3,1.3,0,0,0,0,1.83l8.34,8.32a1.26,1.26,0,0,0,.9.38,1.3,1.3,0,0,0,.9-.38l8.34-8.32a1.3,1.3,0,0,0,0-1.83,13,13,0,0,0-9.24-3.83Z"/><path class="cls-61" d="M1200,263.27a72.23,72.23,0,0,0-92.72,63.62A48.06,48.06,0,0,0,1045,372.76h155Z"/><path class="cls-62" d="M1003.59,283.65q-8.07-2.81-14.09-1.23a11,11,0,0,0-8,7.4l-6.27,18q-3.54,10.18-8.87,14t-14.15,3.39q-8.8-.45-23.07-5.41l7-20.22c5.3,1.62,9.16,2.17,11.58,1.62a6.54,6.54,0,0,0,4.94-4.6l7-20.07q2.73-7.86,8.3-10.74t15.38-1.09l.31-.87q-8.79-4.53-11.37-10.35c-1.71-3.89-1.63-8.57.28-14.05l6.85-19.72a6.69,6.69,0,0,0,.12-4.89,9,9,0,0,0-2.83-3.59q-1.95-1.55-8.42-4L975.32,187q14.25,5,21.46,10t9,11.33q1.82,6.27-1.7,16.37l-6.42,18.48A11,11,0,0,0,999.23,254q3.6,4.88,12,7.79Z"/><path class="cls-63" d="M350.05,185.65q8.7-1.68,13-6a11,11,0,0,0,3.12-10.44L362.46,150q-2-10.51.67-16.45t10.6-9.93q7.89-4,22.64-6.84l4.07,21.1c-4.45,1-7.43,1.94-8.91,2.78a8.68,8.68,0,0,0-3.35,3.19,6.88,6.88,0,0,0-.56,4.82l4,20.49q1.65,8.55-1.74,14t-12.73,8.61l.17.91q10-.36,15.07,3.29T399,207.73l4,20.87a6.54,6.54,0,0,0,2.48,4.31,9.69,9.69,0,0,0,4.71,1.64,38.35,38.35,0,0,0,8.74-.63l4.06,21q-14.9,2.88-23.69,2.06t-13.46-5.36q-4.69-4.54-6.74-15.21l-3.62-18.76a11,11,0,0,0-6.89-8.47q-5.73-2.43-14.2-.79Z"/><path class="cls-64" d="M1045,122.15a35.32,35.32,0,1,1,35.32-35.32A35.35,35.35,0,0,1,1045,122.15Zm0-56.09a20.78,20.78,0,1,0,20.78,20.77A20.8,20.8,0,0,0,1045,66.06Z"/><path class="cls-65" d="M815.73,905.06a12.75,12.75,0,0,1-14.19-18.25l21.75-42.49a12.73,12.73,0,0,1,12.29-6.9l39.17,2.88,17.87-34.93a12.78,12.78,0,0,1,12.3-6.92L952.51,802a12.76,12.76,0,0,1-1.88,25.45l-39.15-2.9-17.87,34.94a12.78,12.78,0,0,1-12.3,6.91l-39.16-2.89-17.9,34.95A12.72,12.72,0,0,1,815.73,905.06Z"/><path class="cls-66" d="M18.29,800.54c-42.41,46.59-6.15,117.72,58.37,109a52.86,52.86,0,0,0,29.41-14.19c47-45.09,13.83-117.75-49-113.52A57.51,57.51,0,0,0,18.29,800.54Z"/><path class="cls-67" d="M695.56,491.86a30.58,30.58,0,0,0-21.13,52.72v0a30.61,30.61,0,1,0,21.13-52.76Z"/><path class="cls-45" d="M712.78,506.57c6.59,6.43,8.42,18.21,3.84,26.16-8.83,15.3-38.27,10.84-39.08,7.33-.38-1.69,5.23-8.77,10.28-10.09,7.72-2,11.32,5,15.89,2.76,5.72-2.84,9.42-12.38,6.63-17.44-5.72-10.38-37.88-.48-38.38-2.8S699,493.06,712.78,506.57Zm-22,31.66a1.62,1.62,0,0,0-.89-2,1.32,1.32,0,0,0-1.72,1.9A1.74,1.74,0,0,0,690.74,538.23Z"/><path class="cls-46" d="M700.11,521c-1.14-.53-1.8-2.05-1.33-2.9.6-1.07,3.09-1.19,3.87.08a2,2,0,0,1-2.54,2.82Z"/><path class="cls-68" d="M590,239.78c7.35,7.17,9.4,20.32,4.28,29.19-9.85,17.06-42.69,12.09-43.59,8.17-.42-1.88,5.83-9.78,11.47-11.26,8.62-2.24,12.62,5.61,17.72,3.09,6.39-3.16,10.51-13.81,7.4-19.46-6.39-11.58-42.26-.53-42.81-3.11S574.58,224.72,590,239.78ZM565.42,275.1a1.8,1.8,0,0,0-1-2.17,1.46,1.46,0,0,0-1.91,2.11A1.92,1.92,0,0,0,565.42,275.1Z"/><path class="cls-69" d="M575.87,255.82c-1.27-.58-2-2.28-1.48-3.23.67-1.19,3.45-1.33,4.32.09a2.18,2.18,0,0,1-2.84,3.14Z"/><path class="cls-70" d="M624.12,266.82v11.37a1.81,1.81,0,0,1-1.8,1.8h-6.79a1.81,1.81,0,0,1-1.8-1.8V237a1.8,1.8,0,0,1,1.8-1.8h14a26,26,0,0,1,8.13,1.12,15.72,15.72,0,0,1,5.59,3.09,12.06,12.06,0,0,1,3.24,4.64,15.61,15.61,0,0,1,1,5.77,17,17,0,0,1-1.07,6.15,12.32,12.32,0,0,1-3.29,4.79,15.47,15.47,0,0,1-5.61,3.12,25.9,25.9,0,0,1-8,1.12h-3.61A1.79,1.79,0,0,0,624.12,266.82Zm0-11.42a1.79,1.79,0,0,0,1.79,1.79h3.61q4.05,0,5.84-1.93a7.67,7.67,0,0,0,1.78-5.41,8,8,0,0,0-.46-2.79,5.65,5.65,0,0,0-1.4-2.17,6.33,6.33,0,0,0-2.36-1.4,10.47,10.47,0,0,0-3.4-.49h-3.61a1.8,1.8,0,0,0-1.79,1.8Z"/><path class="cls-71" d="M666,288.25a3.34,3.34,0,0,1-1,1.4,3.38,3.38,0,0,1-2,.44h-4.28a1.79,1.79,0,0,1-1.62-2.56l4.57-9.6a1.8,1.8,0,0,0,0-1.49l-11.29-25.79a1.8,1.8,0,0,1,1.65-2.52h5.67a2.67,2.67,0,0,1,1.72.49,2.63,2.63,0,0,1,.86,1.17l5.22,13.73a31,31,0,0,1,1.2,3.81c.21-.65.43-1.3.68-1.93s.48-1.28.7-1.94l4.73-13.67a2.34,2.34,0,0,1,1-1.18,2.75,2.75,0,0,1,1.55-.48h5a1.79,1.79,0,0,1,1.65,2.5Z"/><path class="cls-72" d="M715.72,237v4.39a1.8,1.8,0,0,1-1.8,1.8H699.15a1.79,1.79,0,0,0-1.8,1.79v7.75a1.79,1.79,0,0,0,1.8,1.79h11.7a1.81,1.81,0,0,1,1.8,1.8v4.42a1.8,1.8,0,0,1-1.8,1.8h-11.7a1.79,1.79,0,0,0-1.8,1.8v13.82a1.8,1.8,0,0,1-1.8,1.8H688.7a1.8,1.8,0,0,1-1.79-1.8V237a1.79,1.79,0,0,1,1.79-1.8h25.22A1.79,1.79,0,0,1,715.72,237Z"/><path class="cls-73" d="M732.92,247.64a16.51,16.51,0,0,1,5.79,1,12.59,12.59,0,0,1,4.52,2.86,13.1,13.1,0,0,1,2.95,4.59,17,17,0,0,1,1.06,6.16,13.7,13.7,0,0,1-.09,1.75,3.05,3.05,0,0,1-.34,1.08,1.35,1.35,0,0,1-.66.55,3.18,3.18,0,0,1-1.06.15h-16.2a1.82,1.82,0,0,0-1.72,2.34,6.73,6.73,0,0,0,7,5.25,9,9,0,0,0,2.86-.4,13.26,13.26,0,0,0,2.13-.89l1.73-.89a3.64,3.64,0,0,1,1.64-.4,2,2,0,0,1,1.72.83l1.76,2.17a1.81,1.81,0,0,1-.17,2.45,13.1,13.1,0,0,1-2,1.54,16.19,16.19,0,0,1-3.5,1.66,19.4,19.4,0,0,1-3.59.83,27.69,27.69,0,0,1-3.43.23,18.06,18.06,0,0,1-6.28-1.09,14.54,14.54,0,0,1-5.13-3.24,15.34,15.34,0,0,1-3.47-5.35,20,20,0,0,1-1.28-7.43,17,17,0,0,1,1.09-6.05,14.75,14.75,0,0,1,8.08-8.42A16.37,16.37,0,0,1,732.92,247.64Zm.19,6.57a5.74,5.74,0,0,0-4.27,1.55,6.71,6.71,0,0,0-1.33,2,1.79,1.79,0,0,0,1.68,2.46h7.47a1.77,1.77,0,0,0,1.75-2.19v0a5.59,5.59,0,0,0-1-1.92,4.83,4.83,0,0,0-1.73-1.36A5.92,5.92,0,0,0,733.11,254.21Z"/><path class="cls-74" d="M762.54,235.8v42.39a1.81,1.81,0,0,1-1.8,1.8h-5.93a1.81,1.81,0,0,1-1.8-1.8V235.8a1.8,1.8,0,0,1,1.8-1.8h5.93A1.8,1.8,0,0,1,762.54,235.8Z"/><path class="cls-75" d="M780.05,235.8v42.39a1.81,1.81,0,0,1-1.8,1.8h-5.93a1.81,1.81,0,0,1-1.8-1.8V235.8a1.8,1.8,0,0,1,1.8-1.8h5.93A1.8,1.8,0,0,1,780.05,235.8Z"/><path class="cls-76" d="M801.92,247.64a18.32,18.32,0,0,1,6.6,1.14,14.46,14.46,0,0,1,5.12,3.25,14.8,14.8,0,0,1,3.32,5.15,18.72,18.72,0,0,1,1.18,6.8,19.11,19.11,0,0,1-1.18,6.87,14.33,14.33,0,0,1-8.44,8.48,18.32,18.32,0,0,1-6.6,1.15,18.52,18.52,0,0,1-6.65-1.15,14.86,14.86,0,0,1-5.16-3.29,14.44,14.44,0,0,1-3.35-5.19,18.9,18.9,0,0,1-1.19-6.87,18.51,18.51,0,0,1,1.19-6.8,14.45,14.45,0,0,1,3.35-5.15,14.62,14.62,0,0,1,5.16-3.25A18.52,18.52,0,0,1,801.92,247.64Zm0,25.77a5.41,5.41,0,0,0,4.84-2.32q1.54-2.31,1.55-7t-1.55-7a5.42,5.42,0,0,0-4.84-2.3A5.55,5.55,0,0,0,797,257c-1,1.54-1.57,3.88-1.57,7s.53,5.51,1.57,7A5.54,5.54,0,0,0,801.92,273.41Z"/><path class="cls-77" d="M820.4,250.46a1.79,1.79,0,0,1,1.71-2.33h5.18a3.28,3.28,0,0,1,1.75.46,1.85,1.85,0,0,1,.89,1.2l3.2,14.29c.24,1.08.47,2.14.67,3.16s.39,2,.56,3c.28-1,.59-2,.9-3s.63-2.07.94-3.17l4-14.32a2,2,0,0,1,.9-1.18,2.79,2.79,0,0,1,1.62-.48H847a3.06,3.06,0,0,1,1.74.48,2,2,0,0,1,.9,1.18l3.81,14.32c.29,1.08.58,2.14.88,3.16s.58,2.06.84,3.1q.25-1.53.6-3.06c.24-1,.49-2.08.76-3.2l3.37-14.29a1.9,1.9,0,0,1,.88-1.2,3,3,0,0,1,1.64-.46h4.81a1.79,1.79,0,0,1,1.72,2.33l-8.78,28.26a1.78,1.78,0,0,1-1.71,1.27H852a1.56,1.56,0,0,1-1-.37,2.47,2.47,0,0,1-.68-1.23l-4.55-15.88c-.2-.72-.4-1.42-.58-2.12s-.35-1.39-.49-2.09c-.15.72-.3,1.43-.48,2.13s-.37,1.42-.6,2.14L839,278.39a2,2,0,0,1-2,1.6h-6.05a1.8,1.8,0,0,1-1.72-1.27Z"/><rect class="cls-78" x="661.84" y="607.84" width="67.44" height="22.08" rx="3.02"/></g></g></g></svg>